<?xml version="1.0" encoding="utf-8"?>
<!-- Generator: Adobe Illustrator 19.0.0, SVG Export Plug-In . SVG Version: 6.00 Build 0)  -->
<svg version="1.1" id="Layer_1" xmlns="http://www.w3.org/2000/svg" xmlns:xlink="http://www.w3.org/1999/xlink" x="0px" y="0px"
	 viewBox="0 0 138 48" style="enable-background:new 0 0 138 48;" xml:space="preserve">
<style type="text/css">
	.st0{fill:#FFFFFF;}
	.st1{clip-path:url(#XMLID_77_);fill:#FFFFFF;}
</style>
<g id="XMLID_26_">
	<path id="XMLID_42_" class="st0" d="M63.4,43.7c0,0.1-0.1,0.2-0.2,0.3c-0.1,0.1-0.1,0.2-0.2,0.2c-0.1,0.1-0.2,0.1-0.3,0.2
		c-0.1,0-0.2,0.1-0.3,0.1c-0.3,0-0.5-0.1-0.7-0.3c-0.1-0.2-0.2-0.4-0.2-0.7v-0.1c-0.1,0.1-0.1,0.3-0.2,0.4c-0.1,0.1-0.2,0.2-0.3,0.4
		c-0.1,0.1-0.2,0.2-0.4,0.3c-0.1,0.1-0.3,0.1-0.5,0.1c-0.3,0-0.5,0-0.7-0.1c-0.2-0.1-0.4-0.2-0.5-0.4c-0.1-0.2-0.2-0.4-0.3-0.6
		c-0.1-0.2-0.1-0.5-0.1-0.7c0-0.3,0.1-0.7,0.2-1c0.1-0.3,0.3-0.6,0.5-0.9s0.5-0.5,0.8-0.6c0.3-0.2,0.6-0.2,1-0.2c0.1,0,0.3,0,0.4,0
		c0.1,0,0.3,0.1,0.4,0.1c0.1,0.1,0.3,0.1,0.4,0.2c0.1,0.1,0.2,0.2,0.3,0.4L61.6,41c0-0.1-0.1-0.1-0.2-0.2c-0.1-0.1-0.1-0.1-0.2-0.2
		c-0.1-0.1-0.1-0.1-0.2-0.1c-0.1,0-0.2,0-0.3,0c-0.2,0-0.4,0.1-0.5,0.2c-0.2,0.1-0.3,0.3-0.4,0.5c-0.1,0.2-0.2,0.4-0.3,0.6
		c-0.1,0.2-0.1,0.4-0.1,0.6c0,0.1,0,0.3,0,0.5c0,0.2,0.1,0.4,0.2,0.5c0.1,0.2,0.2,0.3,0.3,0.4c0.1,0.1,0.3,0.2,0.5,0.2
		c0.1,0,0.3,0,0.4-0.1c0.1-0.1,0.2-0.1,0.3-0.2c0.1-0.1,0.1-0.2,0.2-0.4c0-0.1,0.1-0.3,0.1-0.4c0-0.1,0-0.3,0.1-0.4
		c0-0.1,0-0.3,0-0.4v-0.4l1.1-0.4v2.4c0,0.1,0,0.1,0.1,0.2c0,0.1,0.1,0.1,0.2,0.1c0.1,0,0.2,0,0.3-0.1c0.1-0.1,0.1-0.1,0.2-0.2
		L63.4,43.7z"/>
	<path id="XMLID_44_" class="st0" d="M66,43.7c0,0.1-0.1,0.2-0.2,0.3c-0.1,0.1-0.2,0.2-0.2,0.2c-0.1,0.1-0.2,0.1-0.3,0.2
		c-0.1,0-0.2,0.1-0.3,0.1c-0.3,0-0.5-0.1-0.7-0.3c-0.1-0.2-0.2-0.4-0.2-0.7v-7.1l1.1-0.4v7.5c0,0.1,0,0.1,0.1,0.2
		c0,0.1,0.1,0.1,0.2,0.1c0.1,0,0.2,0,0.3-0.1c0.1-0.1,0.1-0.1,0.2-0.2L66,43.7z"/>
	<path id="XMLID_46_" class="st0" d="M68.7,43.7c0,0.1-0.1,0.2-0.2,0.3c-0.1,0.1-0.2,0.2-0.2,0.2c-0.1,0.1-0.2,0.1-0.3,0.2
		c-0.1,0-0.2,0.1-0.3,0.1c-0.3,0-0.5-0.1-0.7-0.3c-0.1-0.2-0.2-0.4-0.2-0.7v-7.1l1.1-0.4v7.5c0,0.1,0,0.1,0.1,0.2
		c0,0.1,0.1,0.1,0.2,0.1c0.1,0,0.2,0,0.3-0.1c0.1-0.1,0.1-0.1,0.2-0.2L68.7,43.7z"/>
	<path id="XMLID_48_" class="st0" d="M76.2,43.7c-0.1,0.1-0.1,0.2-0.2,0.3c-0.1,0.1-0.2,0.2-0.3,0.2c-0.1,0.1-0.2,0.1-0.3,0.2
		c-0.1,0-0.2,0.1-0.4,0.1c-0.2,0-0.3-0.1-0.5-0.2c-0.2-0.1-0.3-0.2-0.5-0.4c-0.2-0.2-0.3-0.3-0.4-0.5c-0.1-0.2-0.3-0.3-0.4-0.4
		l-0.1,0.1c0,0.1,0,0.2-0.1,0.3c0,0.1,0,0.2,0,0.3c0,0.1,0,0.2,0,0.3c0,0.1,0,0.2,0,0.3L72,44.6v-8.2l1.1-0.4v6.4
		c0-0.1,0.1-0.3,0.2-0.5c0.1-0.2,0.1-0.4,0.2-0.6c0.1-0.2,0.2-0.4,0.3-0.6c0.1-0.2,0.2-0.4,0.4-0.5c0.1-0.2,0.3-0.3,0.4-0.4
		c0.2-0.1,0.3-0.1,0.5-0.1c0.1,0,0.2,0,0.3,0.1c0.1,0,0.2,0.1,0.2,0.2c0.1,0.1,0.1,0.2,0.1,0.2c0,0.1,0.1,0.2,0.1,0.3
		c0,0.2-0.1,0.4-0.2,0.6c-0.1,0.2-0.2,0.4-0.4,0.6s-0.3,0.3-0.5,0.5c-0.2,0.1-0.4,0.3-0.5,0.4c0.1,0,0.1,0.1,0.2,0.2
		c0.1,0.1,0.1,0.2,0.2,0.3c0.1,0.1,0.2,0.2,0.2,0.3c0.1,0.1,0.2,0.2,0.2,0.2c0.1,0.1,0.2,0.1,0.2,0.2c0.1,0,0.2,0.1,0.2,0.1
		c0.1,0,0.2,0,0.3-0.1c0.1-0.1,0.2-0.1,0.2-0.2L76.2,43.7z M74.7,41c0-0.1,0-0.1-0.1-0.2c-0.1-0.1-0.1-0.1-0.2-0.1
		c-0.1,0-0.2,0-0.2,0.1c-0.1,0.1-0.2,0.2-0.2,0.3c-0.1,0.1-0.1,0.3-0.2,0.4c-0.1,0.1-0.1,0.3-0.2,0.4c-0.1,0.1-0.1,0.3-0.1,0.4
		c0,0.1-0.1,0.2-0.1,0.3c0.1,0,0.1-0.1,0.2-0.2c0.1-0.1,0.2-0.2,0.3-0.3c0.1-0.1,0.2-0.2,0.3-0.3c0.1-0.1,0.2-0.2,0.3-0.3
		c0.1-0.1,0.2-0.2,0.2-0.3C74.7,41.2,74.7,41.1,74.7,41z"/>
	<path id="XMLID_51_" class="st0" d="M80,43.7C80,43.9,79.9,44,79.8,44c-0.1,0.1-0.2,0.2-0.3,0.2s-0.2,0.1-0.4,0.1
		c-0.1,0-0.3,0.1-0.4,0.1c-0.2,0-0.3,0-0.4-0.1c-0.1-0.1-0.2-0.1-0.3-0.3c-0.1-0.1-0.1-0.2-0.2-0.4c0-0.1-0.1-0.3-0.1-0.4
		c0-0.2,0-0.4,0.1-0.6c0.1-0.2,0.1-0.4,0.2-0.7c0.1-0.2,0.2-0.4,0.4-0.6c0.1-0.2,0.3-0.3,0.4-0.5c-0.1,0.1-0.3,0.2-0.4,0.2
		c-0.2,0.1-0.3,0.1-0.5,0.1c-0.1,0-0.2,0-0.3,0c-0.1,0-0.2-0.1-0.3-0.1l-0.6,1.3l-0.2-0.1l0.6-1.3c-0.1,0-0.1-0.1-0.2-0.2
		c-0.1-0.1-0.1-0.1-0.2-0.2l0.8-0.9c0,0.1,0.1,0.2,0.1,0.3c0.1,0.1,0.1,0.2,0.2,0.3c0.1,0.1,0.2,0.2,0.3,0.2
		c0.1,0.1,0.2,0.1,0.3,0.1c0.2,0,0.4,0,0.6-0.1c0.2-0.1,0.4-0.2,0.5-0.3l0.2,0.2c-0.1,0.1-0.3,0.3-0.4,0.4c-0.1,0.2-0.3,0.3-0.4,0.5
		c-0.1,0.2-0.2,0.4-0.3,0.6c-0.1,0.2-0.1,0.4-0.1,0.6c0,0.1,0,0.3,0,0.4c0,0.1,0.1,0.3,0.2,0.4s0.2,0.2,0.3,0.3
		c0.1,0.1,0.2,0.1,0.4,0.1c0.1,0,0.2,0,0.3-0.1c0.1,0,0.2-0.1,0.3-0.1L80,43.7z"/>
	<path id="XMLID_53_" class="st0" d="M82.6,44.5c-0.3,0-0.6-0.1-0.8-0.2c-0.2-0.1-0.5-0.2-0.6-0.4c-0.2-0.2-0.3-0.4-0.4-0.6
		c-0.1-0.2-0.2-0.5-0.2-0.8c0-0.3,0.1-0.6,0.2-0.9s0.3-0.5,0.4-0.8c0.2-0.2,0.4-0.4,0.7-0.6c0.3-0.2,0.5-0.3,0.8-0.4l0.2,0.2
		c-0.2,0.1-0.3,0.3-0.5,0.4c-0.2,0.2-0.3,0.3-0.4,0.5c-0.1,0.2-0.2,0.4-0.3,0.6c-0.1,0.2-0.1,0.4-0.1,0.6c0,0.2,0,0.4,0.1,0.6
		c0.1,0.2,0.1,0.4,0.2,0.6c0.1,0.2,0.2,0.3,0.4,0.4c0.2,0.1,0.4,0.2,0.6,0.2c0.2,0,0.4,0,0.5-0.1c0.1-0.1,0.3-0.2,0.4-0.3
		c0.1-0.1,0.2-0.3,0.2-0.4c0-0.2,0.1-0.3,0.1-0.5c0-0.2,0-0.4-0.1-0.6c-0.1-0.2-0.2-0.4-0.3-0.6c-0.1-0.2-0.3-0.3-0.5-0.5
		c-0.2-0.1-0.4-0.2-0.6-0.2c0.1-0.2,0.3-0.3,0.4-0.4c0.2-0.1,0.3-0.3,0.5-0.4c0.2,0.1,0.4,0.2,0.6,0.3c0.2,0.1,0.3,0.3,0.4,0.5
		c0.1,0.2,0.2,0.4,0.3,0.6c0.1,0.2,0.1,0.4,0.1,0.7c0,0.3-0.1,0.6-0.2,0.9c-0.1,0.3-0.3,0.6-0.5,0.8c-0.2,0.2-0.4,0.4-0.7,0.6
		C83.2,44.4,82.9,44.5,82.6,44.5z"/>
	<path id="XMLID_55_" class="st0" d="M89.5,44c0,0.2,0,0.5-0.1,0.7c-0.1,0.2-0.1,0.5-0.3,0.7c-0.1,0.2-0.3,0.4-0.4,0.6
		c-0.2,0.2-0.3,0.4-0.5,0.5c-0.2,0.2-0.4,0.3-0.6,0.4C87.3,47,87.1,47,86.9,47c-0.2,0-0.3,0-0.4-0.1c-0.1-0.1-0.3-0.1-0.4-0.2
		l0.8-0.7c0.1,0.1,0.2,0.2,0.3,0.3c0.1,0.1,0.2,0.1,0.4,0.1c0.2,0,0.4,0,0.5-0.1c0.1-0.1,0.2-0.2,0.3-0.3c0.1-0.1,0.1-0.3,0.2-0.4
		c0-0.2,0.1-0.3,0.1-0.5c0-0.2,0-0.3,0-0.5c0-0.2,0-0.3,0-0.4v-0.7c-0.1,0.1-0.1,0.3-0.2,0.4c-0.1,0.1-0.2,0.2-0.3,0.4
		c-0.1,0.1-0.2,0.2-0.4,0.3c-0.1,0.1-0.3,0.1-0.5,0.1c-0.3,0-0.5,0-0.7-0.1c-0.2-0.1-0.4-0.2-0.5-0.4c-0.1-0.2-0.2-0.4-0.3-0.6
		c-0.1-0.2-0.1-0.5-0.1-0.7c0-0.2,0-0.5,0.1-0.7c0.1-0.2,0.1-0.5,0.2-0.7c0.1-0.2,0.2-0.4,0.4-0.6c0.1-0.2,0.3-0.3,0.5-0.5
		c0.2-0.1,0.4-0.2,0.6-0.3c0.2-0.1,0.4-0.1,0.7-0.1c0.1,0,0.3,0,0.4,0.1c0.1,0,0.3,0.1,0.4,0.2c0.1,0.1,0.3,0.2,0.4,0.3
		c0.1,0.1,0.2,0.2,0.3,0.4L88.6,41c0-0.1-0.1-0.1-0.2-0.2c-0.1-0.1-0.1-0.1-0.2-0.2c-0.1-0.1-0.1-0.1-0.2-0.2
		c-0.1,0-0.2-0.1-0.3-0.1c-0.1,0-0.3,0-0.4,0.1c-0.1,0.1-0.2,0.1-0.3,0.2c-0.1,0.1-0.2,0.2-0.3,0.3c-0.1,0.1-0.1,0.3-0.2,0.4
		c-0.1,0.1-0.1,0.3-0.1,0.4c0,0.1,0,0.3,0,0.4c0,0.1,0,0.3,0,0.5c0,0.2,0.1,0.4,0.2,0.5c0.1,0.2,0.2,0.3,0.3,0.4
		c0.1,0.1,0.3,0.2,0.5,0.2c0.1,0,0.3,0,0.4-0.1c0.1-0.1,0.2-0.1,0.3-0.2c0.1-0.1,0.1-0.2,0.2-0.4c0-0.1,0.1-0.3,0.1-0.4
		c0-0.1,0-0.3,0.1-0.4c0-0.1,0-0.3,0-0.4v-0.4l1.1-0.4V44z"/>
	<path id="XMLID_57_" class="st0" d="M94.6,43.2c-0.1,0.2-0.3,0.3-0.4,0.5c-0.2,0.2-0.3,0.3-0.5,0.4c-0.2,0.1-0.4,0.2-0.6,0.3
		c-0.2,0.1-0.4,0.1-0.6,0.1c-0.3,0-0.5-0.1-0.8-0.2c-0.2-0.1-0.4-0.2-0.6-0.4c-0.2-0.2-0.3-0.4-0.4-0.6c-0.1-0.2-0.1-0.5-0.1-0.8
		c0-0.2,0-0.5,0.1-0.7c0.1-0.2,0.2-0.4,0.3-0.6c0.1-0.2,0.3-0.4,0.4-0.5c0.2-0.2,0.3-0.3,0.5-0.4c0.2-0.1,0.4-0.2,0.6-0.3
		c0.2-0.1,0.4-0.1,0.7-0.1c0.2,0,0.3,0,0.5,0.1c0.1,0,0.3,0.1,0.4,0.2s0.2,0.2,0.3,0.3c0.1,0.1,0.1,0.3,0.1,0.5c0,0.1,0,0.3-0.1,0.5
		c-0.1,0.2-0.2,0.3-0.3,0.5c-0.1,0.2-0.3,0.3-0.5,0.5c-0.2,0.2-0.4,0.3-0.5,0.4c-0.2,0.1-0.4,0.3-0.5,0.4c-0.2,0.1-0.3,0.2-0.4,0.2
		c0.1,0.2,0.3,0.3,0.5,0.4c0.2,0.1,0.4,0.2,0.6,0.2c0.1,0,0.3,0,0.4-0.1c0.1-0.1,0.3-0.1,0.4-0.2c0.1-0.1,0.3-0.2,0.4-0.3
		c0.1-0.1,0.2-0.2,0.3-0.3L94.6,43.2z M93.2,41c0-0.1,0-0.2,0-0.3s-0.1-0.2-0.1-0.2c-0.1-0.1-0.1-0.1-0.2-0.1
		c-0.1,0-0.2-0.1-0.3-0.1c-0.2,0-0.3,0.1-0.5,0.2c-0.1,0.1-0.3,0.3-0.4,0.4c-0.1,0.2-0.2,0.4-0.2,0.6c-0.1,0.2-0.1,0.4-0.1,0.5
		c0,0.1,0,0.3,0.1,0.5c0,0.2,0.1,0.3,0.2,0.4c0.2-0.1,0.3-0.2,0.5-0.4c0.2-0.2,0.4-0.3,0.5-0.5c0.2-0.2,0.3-0.4,0.4-0.6
		S93.2,41.2,93.2,41z"/>
	<path id="XMLID_60_" class="st0" d="M98.6,43.7c-0.1,0.1-0.2,0.2-0.3,0.3c-0.1,0.1-0.2,0.2-0.3,0.2s-0.2,0.1-0.4,0.1
		c-0.1,0-0.3,0.1-0.4,0.1c-0.2,0-0.3,0-0.4-0.1c-0.1-0.1-0.2-0.1-0.3-0.3c-0.1-0.1-0.1-0.2-0.2-0.4c0-0.1-0.1-0.3-0.1-0.4
		c0-0.2,0-0.4,0.1-0.6c0.1-0.2,0.1-0.4,0.2-0.7c0.1-0.2,0.2-0.4,0.4-0.6c0.1-0.2,0.3-0.3,0.4-0.5c-0.1,0.1-0.3,0.2-0.4,0.2
		c-0.2,0.1-0.3,0.1-0.5,0.1c-0.1,0-0.2,0-0.3,0c-0.1,0-0.2-0.1-0.3-0.1l-0.6,1.3L95,42.2l0.6-1.3c-0.1,0-0.1-0.1-0.2-0.2
		c-0.1-0.1-0.1-0.1-0.2-0.2l0.8-0.9c0,0.1,0.1,0.2,0.1,0.3c0.1,0.1,0.1,0.2,0.2,0.3c0.1,0.1,0.2,0.2,0.3,0.2
		c0.1,0.1,0.2,0.1,0.3,0.1c0.2,0,0.4,0,0.6-0.1c0.2-0.1,0.4-0.2,0.5-0.3l0.2,0.2c-0.1,0.1-0.3,0.3-0.4,0.4c-0.1,0.2-0.3,0.3-0.4,0.5
		c-0.1,0.2-0.2,0.4-0.3,0.6c-0.1,0.2-0.1,0.4-0.1,0.6c0,0.1,0,0.3,0,0.4c0,0.1,0.1,0.3,0.2,0.4s0.2,0.2,0.3,0.3
		c0.1,0.1,0.2,0.1,0.4,0.1c0.1,0,0.2,0,0.3-0.1c0.1,0,0.2-0.1,0.3-0.1L98.6,43.7z"/>
	<path id="XMLID_62_" class="st0" d="M100.8,43.9c0,0.2,0,0.3-0.1,0.4c-0.1,0.1-0.1,0.3-0.2,0.4c-0.1,0.1-0.2,0.2-0.3,0.3
		c-0.1,0.1-0.2,0.2-0.4,0.3l-0.2-0.2c0.1-0.1,0.1-0.1,0.2-0.2c0.1-0.1,0.1-0.2,0.1-0.3c-0.2,0-0.3-0.1-0.4-0.2
		c-0.1-0.1-0.1-0.3-0.1-0.4c0-0.1,0-0.2,0.1-0.3c0-0.1,0.1-0.2,0.1-0.2c0.1-0.1,0.1-0.1,0.2-0.1c0.1,0,0.2-0.1,0.3-0.1
		c0.1,0,0.2,0,0.3,0.1c0.1,0,0.2,0.1,0.2,0.1c0.1,0.1,0.1,0.1,0.1,0.2C100.7,43.8,100.8,43.8,100.8,43.9z"/>
	<path id="XMLID_64_" class="st0" d="M109,43.7c0,0.1-0.1,0.2-0.2,0.3c-0.1,0.1-0.1,0.2-0.2,0.2c-0.1,0.1-0.2,0.1-0.3,0.2
		c-0.1,0-0.2,0.1-0.3,0.1c-0.3,0-0.5-0.1-0.7-0.3c-0.1-0.2-0.2-0.4-0.2-0.7v-0.1c-0.1,0.1-0.1,0.3-0.2,0.4c-0.1,0.1-0.2,0.2-0.3,0.4
		c-0.1,0.1-0.2,0.2-0.4,0.3c-0.1,0.1-0.3,0.1-0.5,0.1c-0.3,0-0.5,0-0.7-0.1c-0.2-0.1-0.4-0.2-0.5-0.4s-0.2-0.4-0.3-0.6
		c-0.1-0.2-0.1-0.5-0.1-0.7c0-0.3,0.1-0.7,0.2-1c0.1-0.3,0.3-0.6,0.5-0.9s0.5-0.5,0.8-0.6c0.3-0.2,0.6-0.2,1-0.2c0.1,0,0.3,0,0.4,0
		c0.1,0,0.3,0.1,0.4,0.1c0.1,0.1,0.3,0.1,0.4,0.2c0.1,0.1,0.2,0.2,0.3,0.4l-0.9,0.4c0-0.1-0.1-0.1-0.2-0.2c-0.1-0.1-0.1-0.1-0.2-0.2
		c-0.1-0.1-0.1-0.1-0.2-0.1c-0.1,0-0.2,0-0.3,0c-0.2,0-0.4,0.1-0.5,0.2c-0.2,0.1-0.3,0.3-0.4,0.5c-0.1,0.2-0.2,0.4-0.3,0.6
		c-0.1,0.2-0.1,0.4-0.1,0.6c0,0.1,0,0.3,0,0.5c0,0.2,0.1,0.4,0.2,0.5c0.1,0.2,0.2,0.3,0.3,0.4c0.1,0.1,0.3,0.2,0.5,0.2
		c0.1,0,0.3,0,0.4-0.1c0.1-0.1,0.2-0.1,0.3-0.2c0.1-0.1,0.1-0.2,0.2-0.4c0-0.1,0.1-0.3,0.1-0.4c0-0.1,0-0.3,0.1-0.4
		c0-0.1,0-0.3,0-0.4v-0.4l1.1-0.4v2.4c0,0.1,0,0.1,0.1,0.2c0,0.1,0.1,0.1,0.2,0.1c0.1,0,0.2,0,0.3-0.1c0.1-0.1,0.1-0.1,0.2-0.2
		L109,43.7z"/>
	<path id="XMLID_66_" class="st0" d="M111.7,43.7c0,0.1-0.1,0.2-0.2,0.3c-0.1,0.1-0.2,0.2-0.2,0.2c-0.1,0.1-0.2,0.1-0.3,0.2
		c-0.1,0-0.2,0.1-0.3,0.1c-0.3,0-0.5-0.1-0.7-0.3c-0.1-0.2-0.2-0.4-0.2-0.7v-7.1l1.1-0.4v7.5c0,0.1,0,0.1,0.1,0.2
		c0,0.1,0.1,0.1,0.2,0.1c0.1,0,0.2,0,0.3-0.1c0.1-0.1,0.1-0.1,0.2-0.2L111.7,43.7z"/>
	<path id="XMLID_68_" class="st0" d="M114.4,43.7c0,0.1-0.1,0.2-0.2,0.3c-0.1,0.1-0.2,0.2-0.2,0.2c-0.1,0.1-0.2,0.1-0.3,0.2
		c-0.1,0-0.2,0.1-0.3,0.1c-0.3,0-0.5-0.1-0.7-0.3c-0.1-0.2-0.2-0.4-0.2-0.7v-7.1l1.1-0.4v7.5c0,0.1,0,0.1,0.1,0.2
		c0,0.1,0.1,0.1,0.2,0.1c0.1,0,0.2,0,0.3-0.1c0.1-0.1,0.1-0.1,0.2-0.2L114.4,43.7z"/>
	<path id="XMLID_70_" class="st0" d="M122.2,43.7c0,0.1-0.1,0.2-0.2,0.3c-0.1,0.1-0.2,0.2-0.2,0.2c-0.1,0.1-0.2,0.1-0.3,0.2
		c-0.1,0-0.2,0.1-0.3,0.1c-0.3,0-0.5-0.1-0.7-0.3c-0.1-0.2-0.2-0.4-0.2-0.7v-0.1c-0.1,0.1-0.1,0.3-0.2,0.4c-0.1,0.1-0.2,0.2-0.3,0.4
		c-0.1,0.1-0.2,0.2-0.4,0.3c-0.1,0.1-0.3,0.1-0.5,0.1c-0.3,0-0.5-0.1-0.7-0.2c-0.2-0.1-0.4-0.2-0.5-0.4c-0.1-0.2-0.2-0.4-0.3-0.6
		c-0.1-0.2-0.1-0.5-0.1-0.7c0-0.3,0.1-0.7,0.2-1c0.1-0.3,0.2-0.6,0.4-0.9c0.2-0.3,0.4-0.5,0.7-0.7c0.3-0.2,0.6-0.3,1-0.3
		c0.2,0,0.4,0.1,0.6,0.2v-3.6l1.1-0.4v7.5c0,0.1,0,0.1,0.1,0.2c0,0.1,0.1,0.1,0.2,0.1c0.1,0,0.2,0,0.2-0.1c0.1-0.1,0.1-0.1,0.2-0.2
		L122.2,43.7z M120.3,41.9v-1.2c-0.1-0.1-0.2-0.2-0.3-0.2c-0.1-0.1-0.2-0.1-0.4-0.1c-0.2,0-0.4,0.1-0.6,0.2
		c-0.2,0.1-0.3,0.3-0.4,0.5c-0.1,0.2-0.2,0.4-0.2,0.6c0,0.2-0.1,0.4-0.1,0.6c0,0.1,0,0.3,0,0.5c0,0.2,0.1,0.4,0.2,0.5
		c0.1,0.2,0.2,0.3,0.3,0.4c0.1,0.1,0.3,0.2,0.4,0.2c0.1,0,0.3,0,0.4-0.1c0.1-0.1,0.2-0.1,0.3-0.2c0.1-0.1,0.1-0.2,0.2-0.4
		c0-0.1,0.1-0.3,0.1-0.4c0-0.1,0-0.3,0.1-0.4C120.3,42.2,120.3,42.1,120.3,41.9z"/>
	<path id="XMLID_73_" class="st0" d="M127.5,43.7c0,0.1-0.1,0.2-0.2,0.3c-0.1,0.1-0.1,0.2-0.2,0.2c-0.1,0.1-0.2,0.1-0.3,0.2
		c-0.1,0-0.2,0.1-0.3,0.1c-0.3,0-0.5-0.1-0.7-0.3c-0.1-0.2-0.2-0.4-0.2-0.7v-0.1c-0.1,0.1-0.1,0.3-0.2,0.4s-0.2,0.2-0.3,0.4
		c-0.1,0.1-0.2,0.2-0.4,0.3c-0.1,0.1-0.3,0.1-0.5,0.1c-0.3,0-0.5,0-0.7-0.1c-0.2-0.1-0.4-0.2-0.5-0.4c-0.1-0.2-0.2-0.4-0.3-0.6
		s-0.1-0.5-0.1-0.7c0-0.3,0.1-0.7,0.2-1c0.1-0.3,0.3-0.6,0.5-0.9s0.5-0.5,0.8-0.6c0.3-0.2,0.6-0.2,1-0.2c0.1,0,0.3,0,0.4,0
		c0.1,0,0.3,0.1,0.4,0.1c0.1,0.1,0.3,0.1,0.4,0.2c0.1,0.1,0.2,0.2,0.3,0.4l-0.9,0.4c0-0.1-0.1-0.1-0.2-0.2c-0.1-0.1-0.1-0.1-0.2-0.2
		c-0.1-0.1-0.1-0.1-0.2-0.1c-0.1,0-0.2,0-0.3,0c-0.2,0-0.4,0.1-0.5,0.2c-0.2,0.1-0.3,0.3-0.4,0.5c-0.1,0.2-0.2,0.4-0.3,0.6
		c-0.1,0.2-0.1,0.4-0.1,0.6c0,0.1,0,0.3,0,0.5c0,0.2,0.1,0.4,0.2,0.5c0.1,0.2,0.2,0.3,0.3,0.4c0.1,0.1,0.3,0.2,0.5,0.2
		c0.1,0,0.3,0,0.4-0.1c0.1-0.1,0.2-0.1,0.3-0.2c0.1-0.1,0.1-0.2,0.2-0.4c0-0.1,0.1-0.3,0.1-0.4c0-0.1,0-0.3,0.1-0.4
		c0-0.1,0-0.3,0-0.4v-0.4l1.1-0.4v2.4c0,0.1,0,0.1,0.1,0.2c0,0.1,0.1,0.1,0.2,0.1c0.1,0,0.2,0,0.3-0.1c0.1-0.1,0.1-0.1,0.2-0.2
		L127.5,43.7z"/>
	<path id="XMLID_75_" class="st0" d="M131.9,43.9c0,0.3,0,0.5-0.1,0.8c-0.1,0.3-0.2,0.5-0.3,0.7c-0.1,0.2-0.3,0.4-0.4,0.6
		c-0.2,0.2-0.3,0.4-0.5,0.5c-0.2,0.1-0.4,0.3-0.6,0.3c-0.2,0.1-0.4,0.1-0.7,0.1c-0.2,0-0.3,0-0.5-0.1c-0.1-0.1-0.3-0.1-0.4-0.2
		l0.6-0.8c0.1,0,0.1,0.1,0.2,0.1c0.1,0.1,0.1,0.1,0.2,0.1c0.1,0,0.2,0.1,0.2,0.1c0.1,0,0.2,0,0.2,0c0.1,0,0.3,0,0.4-0.1
		c0.1-0.1,0.2-0.2,0.3-0.3c0.1-0.1,0.1-0.3,0.2-0.5c0-0.2,0.1-0.4,0.1-0.5s0-0.3,0-0.5c0-0.2,0-0.3,0-0.4v-2.3
		c0,0.1-0.1,0.3-0.1,0.5s-0.1,0.4-0.2,0.6c-0.1,0.2-0.2,0.4-0.3,0.6c-0.1,0.2-0.2,0.4-0.3,0.6c-0.1,0.2-0.3,0.3-0.4,0.4
		c-0.1,0.1-0.3,0.2-0.5,0.2c-0.2,0-0.3,0-0.4-0.1c-0.1-0.1-0.2-0.2-0.2-0.3c0-0.1-0.1-0.3-0.1-0.4c0-0.1,0-0.3,0-0.4v-2.5
		c0-0.1,0-0.1-0.1-0.2c0-0.1-0.1-0.1-0.2-0.1c-0.1,0-0.2,0-0.3,0.1c-0.1,0.1-0.1,0.1-0.2,0.2l-0.2-0.2c0-0.1,0.1-0.2,0.2-0.3
		c0.1-0.1,0.2-0.2,0.2-0.2c0.1-0.1,0.2-0.1,0.3-0.2c0.1,0,0.2-0.1,0.3-0.1c0.3,0,0.5,0.1,0.7,0.3c0.1,0.2,0.2,0.4,0.2,0.7v2.4
		c0,0,0,0.1,0,0.1c0,0,0,0.1,0,0.1c0,0,0,0.1,0.1,0.1c0,0,0.1,0,0.1,0c0.1,0,0.1,0,0.2-0.1c0.1-0.1,0.2-0.2,0.2-0.3
		c0.1-0.1,0.1-0.2,0.2-0.3c0.1-0.1,0.1-0.2,0.1-0.2c0.1-0.2,0.1-0.3,0.2-0.5c0.1-0.2,0.1-0.4,0.1-0.6c0-0.2,0.1-0.4,0.1-0.6
		c0-0.2,0.1-0.4,0.1-0.6l1.1-0.4V43.9z"/>
</g>
<g id="XMLID_1_">
	<g id="XMLID_2_">
		<path id="XMLID_3_" class="st0" d="M32.5,7.8c-0.4,1.1-1,2.2-1.6,3.4c-0.6,1.2-1.2,2.2-2,3.2l-1.2,1.7c0.8-0.6,1.7-1.2,2.6-1.9
			c0.9-0.7,1.8-1.4,2.8-2.3c1-0.8,2-1.8,3.1-2.8c1.1-1,2.1-2.2,3.3-3.6c0.5-0.6,0.9-1.2,1.2-1.7c0.3-0.5,0.5-0.9,0.6-1.3
			c0.1-0.4,0.2-0.7,0.2-0.9c0-0.2,0-0.4,0-0.6c0.6,0.1,1.1,0.4,1.5,0.8c0.4,0.4,0.7,0.8,0.9,1.3c0.2,0.5,0.3,1,0.3,1.5
			c0,0.5-0.2,1-0.4,1.4c-0.6,0.8-1.4,1.7-2.4,2.6c-1,0.9-2.1,1.8-3.3,2.8c-1.2,0.9-2.5,1.9-3.9,2.8c-1.4,0.9-2.7,1.9-4,2.8
			c0.6,1.1,1.1,2.2,1.5,3.2c0.4,1,0.9,1.9,1.3,2.8c0.4,0.9,0.8,1.6,1.3,2.4c0.4,0.7,1,1.4,1.6,1.9c0.6,0.6,1.3,1.1,2.2,1.5
			c0.8,0.4,1.8,0.8,3,1.1c-0.5,1-1.1,1.8-1.6,2.2c-0.6,0.4-1.2,0.6-1.8,0.5c-0.6-0.1-1.2-0.3-1.8-0.7c-0.6-0.4-1.1-0.9-1.6-1.5
			c-0.7-0.8-1.4-1.7-1.9-2.7c-0.5-1-1-2-1.4-3.1c-0.4-1.1-0.8-2.1-1.1-3.2c-0.3-1.1-0.6-2.2-0.8-3.3c-1.9,1.4-3.5,2.6-4.7,3.8
			c-0.9,1.5-1.8,3-2.6,4.4c-0.8,1.4-1.5,2.6-2.2,3.6c-0.2,0-0.5-0.1-0.8-0.4c-0.3-0.3-0.6-0.6-0.9-1c-0.3-0.4-0.5-0.8-0.6-1.2
			c-0.1-0.4-0.1-0.7,0-1c1.4-2,2.7-3.8,4-5.4c1.2-1.6,2.3-3.1,3.4-4.5s2.1-2.8,3-4.2c1-1.4,1.9-3,2.9-4.7C30.7,6.6,31,6.1,31,5.8
			c0.1-0.4,0-0.6-0.1-0.7c-0.2-0.1-0.5-0.2-0.9-0.1c-0.4,0.1-0.9,0.2-1.5,0.3c-1.9,0.4-3.6,0.8-5.2,1.2c-1.6,0.4-3.1,0.8-4.4,1.1
			c-1.4,0.3-2.6,0.6-3.8,0.8c-1.2,0.2-2.3,0.3-3.4,0.3c-0.6,0-1.3-0.1-2-0.4c-0.7-0.2-1.4-0.6-2-1.2C7,6.6,6.7,5.9,6.5,5.1
			C6.3,4.2,6.4,3.2,6.9,2c0,0.5,0.2,0.9,0.6,1.3c0.4,0.4,1,0.7,1.6,1c0.7,0.3,1.4,0.5,2.2,0.6C12,5,12.8,5,13.5,5.1c0.4,0,1,0,1.7,0
			c0.7,0,1.5-0.1,2.4-0.2c0.9-0.1,1.8-0.2,2.8-0.3c1-0.1,2-0.3,3-0.4c1-0.1,1.9-0.3,2.8-0.5c0.9-0.2,1.6-0.3,2.3-0.5
			C29.1,3,29.7,3,30.3,3.1c0.6,0.1,1.1,0.4,1.5,0.8c0.4,0.4,0.7,0.9,0.8,1.6C32.8,6.1,32.7,6.9,32.5,7.8z"/>
		<path id="XMLID_5_" class="st0" d="M36.9,20.7c-0.1,0.1-0.3,0.1-0.4,0.1c-0.1,0-0.2-0.1-0.3-0.1c-0.1-0.1-0.1-0.2-0.2-0.3
			c0-0.1,0-0.3,0.1-0.4c0.3-0.5,0.7-1,1.2-1.5c0.4-0.5,0.9-1,1.3-1.6c-0.5,0-1-0.1-1.3-0.4c-0.3-0.2-0.5-0.5-0.6-0.8
			c-0.1-0.3-0.1-0.6-0.1-0.9c0.1-0.3,0.2-0.6,0.4-0.8c0.2-0.2,0.5-0.4,0.8-0.4c0.4-0.1,0.8,0,1.2,0.3c0.3,0.1,0.5,0.4,0.8,0.8
			c0.2,0.4,0.4,0.7,0.4,1c0.3,0,0.6,0,0.9,0s0.7,0,1,0.1c0.3,0.1,0.6,0.2,0.8,0.4c0.2,0.2,0.4,0.4,0.4,0.7c0,0.4-0.2,1-0.6,1.5
			c-0.4,0.6-0.8,1.2-1.3,1.8c-0.5,0.6-0.9,1.3-1.4,1.9c-0.5,0.6-0.8,1.2-1,1.8c-0.2,0.5-0.3,0.9-0.4,1.2c0,0.3,0,0.4,0.1,0.4
			c0.1,0,0.3,0,0.5-0.2c0.2-0.2,0.5-0.5,0.8-0.8c0.7-0.8,1.5-1.6,2.3-2.5c0.8-0.9,1.6-1.8,2.4-2.7c0.1-0.1,0.3-0.2,0.5-0.2
			c0.2,0,0.3,0.1,0.4,0.2c0.1,0.1,0.2,0.2,0.2,0.4c0,0.1,0,0.3-0.1,0.4c-0.4,0.4-0.8,0.8-1.2,1.2c-0.4,0.4-0.9,0.9-1.3,1.3
			c-0.4,0.4-0.9,0.9-1.3,1.3c-0.4,0.4-0.8,0.8-1.2,1.2c-0.3,0.3-0.5,0.5-0.8,0.7c-0.3,0.2-0.6,0.3-0.9,0.4c-0.5,0.1-0.9,0-1.2-0.4
			c-0.3-0.3-0.5-0.7-0.5-1.2c0-0.5,0.1-1,0.3-1.5c0.2-0.5,0.4-1,0.8-1.6c0.3-0.6,0.7-1.1,1.1-1.7c0.4-0.6,0.8-1.2,1.3-1.9
			c0.1-0.2,0.2-0.4,0.1-0.5c0-0.1-0.3-0.2-0.7-0.2c-0.4,0.4-0.7,0.7-1,1c-0.3,0.3-0.6,0.6-0.8,0.9c-0.3,0.3-0.5,0.6-0.8,0.8
			C37.4,20.2,37.2,20.4,36.9,20.7z"/>
		<path id="XMLID_7_" class="st0" d="M53.5,19.4c0.1-0.1,0.2-0.2,0.4-0.3c0.2,0,0.3,0,0.4,0c0.1,0,0.2,0.1,0.3,0.3
			c0.1,0.1,0,0.4-0.1,0.6c-0.3,0.3-0.6,0.7-0.9,1.1c-0.4,0.4-0.8,0.8-1.2,1.1c-0.4,0.3-0.9,0.5-1.4,0.6c-0.5,0.1-1-0.1-1.5-0.4
			c-0.6,0.6-1.2,1.2-1.7,1.7c-0.6,0.5-1,0.8-1.4,1.1c-0.2,0.1-0.3,0.2-0.4,0.3c-0.1,0.1-0.3,0.2-0.4,0.3C45,26,44.6,26,44.3,26
			c-0.3-0.1-0.6-0.2-0.8-0.4c-0.2-0.2-0.4-0.5-0.5-0.8c-0.1-0.3-0.1-0.7-0.1-1c0-0.6,0.2-1.2,0.5-1.8c0.3-0.7,0.7-1.3,1.1-2
			c0.4-0.7,0.9-1.3,1.4-1.9c0.5-0.6,1.1-1.1,1.6-1.6c0.5-0.5,1-0.9,1.4-1.3c0.4-0.3,0.8-0.6,1.1-0.7c0.2-0.2,0.5-0.2,0.9-0.1
			c0.4,0.1,0.6,0.3,0.8,0.5c0.7,0.2,1,0.5,1.2,1.1c0.1,0.5,0,1.1-0.2,1.7c-0.3,0.7-0.6,1.3-1.2,2.1c-0.5,0.7-1.1,1.5-1.7,2.1
			c0.3,0.2,0.7,0.2,1,0c0.4-0.2,0.7-0.4,1-0.7c0.3-0.3,0.6-0.6,0.9-1C53.1,19.9,53.3,19.6,53.5,19.4z M45.6,24.6
			c0.4-0.3,0.9-0.8,1.5-1.3c0.5-0.5,1.1-1.1,1.6-1.7c-0.2-0.4-0.4-0.9-0.4-1.5c-0.1-0.6,0-1.1,0.1-1.7c-0.4,0.4-0.8,0.9-1.2,1.4
			c-0.4,0.5-0.7,1.1-1.1,1.7c-0.1,0.2-0.3,0.5-0.4,0.9c-0.2,0.3-0.4,0.7-0.6,1c-0.2,0.3-0.3,0.7-0.5,1c-0.1,0.3-0.2,0.5-0.2,0.7
			c0,0.2,0.1,0.2,0.3,0.2C44.9,25.1,45.2,24.9,45.6,24.6z M51.2,18.4c0.2-0.3,0.3-0.6,0.4-0.9c0.1-0.3,0.1-0.6,0-0.8
			c0-0.2-0.1-0.4-0.2-0.5c-0.1-0.1-0.3-0.1-0.5-0.1L50,16.8c-0.4,0.6-0.7,1.2-0.8,2C49,19.6,49,20.3,49.2,21
			c0.4-0.5,0.8-0.9,1.1-1.4C50.7,19.2,51,18.8,51.2,18.4z"/>
		<path id="XMLID_11_" class="st0" d="M63.1,16.4c-0.5,0.5-1,1.1-1.4,1.8c-0.4,0.7-0.9,1.5-1.5,2.3c-0.5,0.7-1,1.5-1.5,2.3
			c-0.5,0.8-1,1.6-1.6,2.4c1-0.6,1.9-1.4,2.9-2.4c1-0.9,2-2.1,3.1-3.6c0.1-0.1,0.3-0.2,0.4-0.2c0.2,0,0.3,0,0.4,0.1
			c0.1,0.1,0.2,0.2,0.2,0.3c0,0.1,0,0.3-0.1,0.4c-0.6,0.6-1.2,1.3-1.8,1.9c-0.5,0.6-1.1,1.2-1.7,1.7c-0.8,0.7-1.6,1.4-2.4,1.9
			c-0.8,0.5-1.6,1-2.3,1.4l-1.2,1.8c-0.7,1-1.3,1.8-1.9,2.5c-0.6,0.7-1.2,1.3-1.9,1.8c-0.4,0.3-0.8,0.5-1.3,0.7
			c-0.5,0.2-0.9,0.2-1.3,0.1c-0.4-0.1-0.7-0.3-1-0.6c-0.2-0.3-0.3-0.8-0.2-1.4c0.1-0.3,0.3-0.7,0.6-1c0.3-0.4,0.7-0.7,1.2-1
			c0.4-0.3,0.9-0.6,1.4-0.8c0.5-0.3,0.9-0.5,1.2-0.6L54,27c0.5-0.7,1-1.5,1.5-2.3c0.5-0.8,1-1.6,1.5-2.4c-0.4,0.4-0.7,0.7-1.1,1.1
			s-0.7,0.8-1.1,1.2c-0.1,0.1-0.3,0.3-0.5,0.6c-0.2,0.2-0.4,0.4-0.6,0.6c-0.5,0.4-1,0.5-1.4,0.5c-0.4,0-0.7-0.2-1-0.4
			c-0.3-0.3-0.5-0.6-0.6-1c-0.1-0.4-0.2-0.8-0.1-1.2c0.1-0.5,0.3-1.1,0.6-1.8s0.8-1.4,1.3-2.2c0.5-0.7,1.1-1.5,1.7-2.1
			c0.6-0.7,1.2-1.2,1.9-1.6c0.2-0.1,0.5-0.3,0.8-0.4c0.4-0.2,0.7-0.3,1.2-0.4c0.4-0.1,0.9-0.1,1.3,0c0.5,0.1,0.9,0.3,1.3,0.6
			c0.2-0.3,0.3-0.6,0.5-0.8c0.1-0.2,0.3-0.4,0.3-0.5c0.1,0,0.3,0,0.5,0.1c0.2,0.1,0.4,0.2,0.5,0.4c0.2,0.2,0.3,0.4,0.4,0.6
			C63.1,16,63.2,16.2,63.1,16.4z M50.1,31.6c0.5-0.4,0.9-0.8,1.4-1.3c0.5-0.5,1-1.1,1.5-1.7c-0.6,0.4-1.3,0.8-2,1.2
			c-0.7,0.4-1.3,0.9-2,1.5c-0.6,0.5-0.9,0.8-1,1c-0.1,0.2-0.1,0.3,0.1,0.4c0.2,0,0.5-0.1,0.9-0.2C49.3,32.1,49.7,31.9,50.1,31.6z
			 M59.7,17.5c0.2-0.3,0.3-0.4,0.2-0.6c-0.1-0.1-0.3-0.2-0.5-0.2c-0.2,0-0.5,0-0.7,0c-0.3,0-0.5,0.1-0.6,0.1
			c-0.6,0.2-1.2,0.7-1.7,1.3c-0.6,0.6-1.1,1.3-1.5,2c-0.5,0.7-0.9,1.4-1.2,2.1c-0.3,0.7-0.6,1.2-0.8,1.6c-0.2,0.4-0.3,0.8-0.5,1.2
			c-0.1,0.3-0.2,0.6-0.1,0.7c0,0.1,0.1,0.1,0.3,0c0.2-0.1,0.5-0.5,1-1l0.2-0.2c1-1.2,2-2.4,3-3.5C57.6,19.9,58.7,18.7,59.7,17.5z"/>
		<path id="XMLID_15_" class="st0" d="M63.3,23.1C63.3,23.1,63.3,23.1,63.3,23.1C63.3,23.2,63.3,23.2,63.3,23.1
			c-0.1,0.2-0.2,0.3-0.2,0.4C63,23.7,63,23.8,62.9,24c-0.3,0.8-0.3,1.3-0.1,1.5c0.2,0.2,0.6,0.1,1.3-0.3c0.5-0.3,1.1-0.7,1.6-1.2
			c0.6-0.5,1.1-0.9,1.6-1.4c0.6-0.6,1.1-1.1,1.6-1.7c0.5-0.6,1-1.1,1.5-1.7c0.1-0.1,0.3-0.2,0.4-0.2c0.1,0,0.3,0,0.4,0.1
			c0.1,0.1,0.2,0.2,0.2,0.4c0,0.1,0,0.3-0.1,0.4c-0.4,0.5-1,1.1-1.7,1.8c-0.7,0.7-1.4,1.3-2.1,2c-0.7,0.6-1.5,1.2-2.3,1.6
			c-0.8,0.5-1.5,0.8-2.1,0.9c-0.4,0.1-0.7,0-1.1-0.1c-0.3-0.1-0.6-0.3-0.8-0.6c-0.2-0.3-0.4-0.5-0.5-0.9c-0.1-0.3-0.1-0.7,0-1
			c0.1-0.4,0.3-1,0.6-1.6c0.3-0.6,0.6-1.2,1-1.8c0.4-0.6,0.8-1.2,1.3-1.9c0.5-0.6,1-1.2,1.5-1.7c0.5-0.5,1-0.9,1.6-1.3
			c0.5-0.4,1.1-0.6,1.6-0.7c0.6-0.1,1.1,0,1.5,0.3s0.7,0.7,0.7,1.2c0,0.3-0.1,0.6-0.2,0.9c-0.2,0.3-0.4,0.6-0.5,0.8
			c-0.4,0.6-0.8,1.1-1.3,1.6c-0.5,0.5-1,1-1.6,1.5c-0.6,0.5-1.2,0.9-1.8,1.2C64.6,22.7,64,23,63.3,23.1z M67.5,17.4
			c-0.2,0.3-0.5,0.5-0.8,0.9c-0.3,0.3-0.6,0.7-0.9,1.1c-0.3,0.4-0.6,0.8-1,1.2c-0.3,0.4-0.6,0.8-0.9,1.2c0.7-0.4,1.4-0.8,2.1-1.3
			c0.6-0.5,1.2-1.1,1.8-1.7c0.1-0.1,0.2-0.3,0.4-0.4c0.2-0.2,0.3-0.3,0.4-0.4c0.4-0.5,0.7-0.8,0.7-1c0-0.2,0-0.3-0.2-0.4
			c-0.2,0-0.4,0.1-0.8,0.2C68.1,16.9,67.8,17.1,67.5,17.4z"/>
		<path id="XMLID_18_" class="st0" d="M70.7,20.7c-0.1,0.1-0.3,0.1-0.4,0.1c-0.1,0-0.2-0.1-0.3-0.1c-0.1-0.1-0.1-0.2-0.2-0.3
			c0-0.1,0-0.3,0.1-0.4c0.3-0.5,0.7-1,1.2-1.5c0.4-0.5,0.9-1,1.3-1.6c-0.5,0-1-0.1-1.3-0.4c-0.3-0.2-0.5-0.5-0.6-0.8
			c-0.1-0.3-0.1-0.6-0.1-0.9c0.1-0.3,0.2-0.6,0.4-0.8c0.2-0.2,0.5-0.4,0.8-0.4c0.4-0.1,0.8,0,1.2,0.3c0.3,0.1,0.5,0.4,0.8,0.8
			c0.2,0.4,0.4,0.7,0.4,1c0.3,0,0.6,0,0.9,0c0.4,0,0.7,0,1,0.1c0.3,0.1,0.6,0.2,0.8,0.4c0.2,0.2,0.4,0.4,0.4,0.7
			c0,0.4-0.2,1-0.6,1.5c-0.4,0.6-0.8,1.2-1.3,1.8c-0.5,0.6-0.9,1.3-1.4,1.9c-0.5,0.6-0.8,1.2-1,1.8c-0.2,0.5-0.3,0.9-0.4,1.2
			c0,0.3,0,0.4,0.1,0.4c0.1,0,0.3,0,0.5-0.2c0.2-0.2,0.5-0.5,0.8-0.8c0.7-0.8,1.5-1.6,2.3-2.5c0.8-0.9,1.6-1.8,2.4-2.7
			c0.1-0.1,0.3-0.2,0.5-0.2c0.2,0,0.3,0.1,0.4,0.2c0.1,0.1,0.2,0.2,0.2,0.4c0,0.1,0,0.3-0.1,0.4c-0.4,0.4-0.8,0.8-1.2,1.2
			c-0.4,0.4-0.9,0.9-1.3,1.3c-0.4,0.4-0.9,0.9-1.3,1.3c-0.4,0.4-0.8,0.8-1.2,1.2c-0.3,0.3-0.5,0.5-0.8,0.7c-0.3,0.2-0.6,0.3-0.9,0.4
			c-0.5,0.1-0.9,0-1.2-0.4c-0.3-0.3-0.5-0.7-0.5-1.2c0-0.5,0.1-1,0.3-1.5c0.2-0.5,0.4-1,0.8-1.6c0.3-0.6,0.7-1.1,1.1-1.7
			c0.4-0.6,0.8-1.2,1.3-1.9c0.1-0.2,0.2-0.4,0.1-0.5c0-0.1-0.3-0.2-0.7-0.2c-0.4,0.4-0.7,0.7-1,1c-0.3,0.3-0.6,0.6-0.8,0.9
			c-0.3,0.3-0.5,0.6-0.8,0.8C71.3,20.2,71,20.4,70.7,20.7z"/>
		<path id="XMLID_28_" class="st0" d="M95.2,7.8c-0.4,1.1-1,2.2-1.6,3.4c-0.6,1.2-1.2,2.2-2,3.2l-1.2,1.7c0.8-0.6,1.7-1.2,2.6-1.9
			c0.9-0.7,1.8-1.4,2.8-2.3c1-0.8,2-1.8,3.1-2.8c1.1-1,2.1-2.2,3.3-3.6c0.5-0.6,0.9-1.2,1.2-1.7c0.3-0.5,0.5-0.9,0.6-1.3
			c0.1-0.4,0.2-0.7,0.2-0.9c0-0.2,0-0.4,0-0.6c0.6,0.1,1.1,0.4,1.5,0.8c0.4,0.4,0.7,0.8,0.9,1.3c0.2,0.5,0.3,1,0.3,1.5
			c0,0.5-0.2,1-0.4,1.4c-0.6,0.8-1.4,1.7-2.4,2.6c-1,0.9-2.1,1.8-3.3,2.8c-1.2,0.9-2.5,1.9-3.9,2.8c-1.4,0.9-2.7,1.9-4,2.8
			c0.6,1.1,1.1,2.2,1.5,3.2c0.4,1,0.9,1.9,1.3,2.8c0.4,0.9,0.8,1.6,1.3,2.4c0.4,0.7,1,1.4,1.6,1.9c0.6,0.6,1.3,1.1,2.2,1.5
			c0.8,0.4,1.8,0.8,3,1.1c-0.5,1-1.1,1.8-1.6,2.2c-0.6,0.4-1.2,0.6-1.8,0.5c-0.6-0.1-1.2-0.3-1.8-0.7c-0.6-0.4-1.1-0.9-1.6-1.5
			c-0.7-0.8-1.4-1.7-1.9-2.7c-0.5-1-1-2-1.4-3.1c-0.4-1.1-0.8-2.1-1.1-3.2c-0.3-1.1-0.6-2.2-0.8-3.3c-1.9,1.4-3.5,2.6-4.7,3.8
			c-0.9,1.5-1.8,3-2.6,4.4c-0.8,1.4-1.5,2.6-2.2,3.6c-0.2,0-0.5-0.1-0.8-0.4c-0.3-0.3-0.6-0.6-0.9-1c-0.3-0.4-0.5-0.8-0.6-1.2
			c-0.1-0.4-0.1-0.7,0-1c1.4-2,2.7-3.8,4-5.4c1.2-1.6,2.3-3.1,3.4-4.5c1.1-1.4,2.1-2.8,3-4.2c1-1.4,1.9-3,2.9-4.7
			c0.4-0.7,0.6-1.2,0.7-1.6c0.1-0.4,0-0.6-0.1-0.7c-0.2-0.1-0.5-0.2-0.9-0.1c-0.4,0.1-0.9,0.2-1.5,0.3c-1.9,0.4-3.6,0.8-5.2,1.2
			c-1.6,0.4-3.1,0.8-4.4,1.1c-1.4,0.3-2.6,0.6-3.8,0.8c-1.2,0.2-2.3,0.3-3.4,0.3c-0.6,0-1.3-0.1-2-0.4c-0.7-0.2-1.4-0.6-2-1.2
			c-0.6-0.5-0.9-1.2-1.1-2.1C68.9,4.2,69,3.2,69.5,2c0,0.5,0.2,0.9,0.6,1.3c0.4,0.4,1,0.7,1.6,1c0.7,0.3,1.4,0.5,2.2,0.6
			C74.7,5,75.4,5,76.2,5.1c0.4,0,1,0,1.7,0c0.7,0,1.5-0.1,2.4-0.2c0.9-0.1,1.8-0.2,2.8-0.3c1-0.1,2-0.3,3-0.4c1-0.1,1.9-0.3,2.8-0.5
			c0.9-0.2,1.6-0.3,2.3-0.5C91.8,3,92.4,3,93,3.1c0.6,0.1,1.1,0.4,1.5,0.8c0.4,0.4,0.7,0.9,0.8,1.6C95.4,6.1,95.4,6.9,95.2,7.8z"/>
		<path id="XMLID_31_" class="st0" d="M99.6,20.7c-0.1,0.1-0.3,0.1-0.4,0.1c-0.1,0-0.2-0.1-0.3-0.1c-0.1-0.1-0.1-0.2-0.2-0.3
			c0-0.1,0-0.3,0.1-0.4c0.3-0.5,0.7-1,1.2-1.5c0.4-0.5,0.9-1,1.3-1.6c-0.5,0-1-0.1-1.3-0.4c-0.3-0.2-0.5-0.5-0.6-0.8
			c-0.1-0.3-0.1-0.6-0.1-0.9c0.1-0.3,0.2-0.6,0.4-0.8c0.2-0.2,0.5-0.4,0.8-0.4c0.4-0.1,0.8,0,1.2,0.3c0.3,0.1,0.5,0.4,0.8,0.8
			c0.2,0.4,0.4,0.7,0.4,1c0.3,0,0.6,0,0.9,0c0.4,0,0.7,0,1,0.1c0.3,0.1,0.6,0.2,0.8,0.4c0.2,0.2,0.4,0.4,0.4,0.7
			c0,0.4-0.2,1-0.6,1.5c-0.4,0.6-0.8,1.2-1.3,1.8c-0.5,0.6-0.9,1.3-1.4,1.9c-0.5,0.6-0.8,1.2-1,1.8c-0.2,0.5-0.3,0.9-0.4,1.2
			c0,0.3,0,0.4,0.1,0.4c0.1,0,0.3,0,0.5-0.2c0.2-0.2,0.5-0.5,0.8-0.8c0.7-0.8,1.5-1.6,2.3-2.5c0.8-0.9,1.6-1.8,2.4-2.7
			c0.1-0.1,0.3-0.2,0.5-0.2c0.2,0,0.3,0.1,0.4,0.2c0.1,0.1,0.2,0.2,0.2,0.4c0,0.1,0,0.3-0.1,0.4c-0.4,0.4-0.8,0.8-1.2,1.2
			c-0.4,0.4-0.9,0.9-1.3,1.3c-0.4,0.4-0.9,0.9-1.3,1.3c-0.4,0.4-0.8,0.8-1.2,1.2c-0.3,0.3-0.5,0.5-0.8,0.7c-0.3,0.2-0.6,0.3-0.9,0.4
			c-0.5,0.1-0.9,0-1.2-0.4c-0.3-0.3-0.5-0.7-0.5-1.2c0-0.5,0.1-1,0.3-1.5c0.2-0.5,0.4-1,0.8-1.6c0.3-0.6,0.7-1.1,1.1-1.7
			c0.4-0.6,0.8-1.2,1.3-1.9c0.1-0.2,0.2-0.4,0.1-0.5c0-0.1-0.3-0.2-0.7-0.2c-0.4,0.4-0.7,0.7-1,1c-0.3,0.3-0.6,0.6-0.8,0.9
			c-0.3,0.3-0.5,0.6-0.8,0.8C100.1,20.2,99.8,20.4,99.6,20.7z"/>
		<path id="XMLID_33_" class="st0" d="M115.9,14.6c0.1-0.1,0.3-0.1,0.6,0c0.2,0.1,0.5,0.3,0.7,0.5c0.2,0.2,0.4,0.5,0.5,0.8
			c0.1,0.3,0.1,0.5,0,0.6c-0.4,0.5-0.8,1.1-1.2,1.7c-0.4,0.6-0.9,1.2-1.3,1.9c-0.4,0.7-0.8,1.3-1.2,2c-0.4,0.7-0.7,1.3-1,2
			c-0.4,1-0.6,1.6-0.3,1.6s0.7-0.3,1.3-1.1c0.7-0.8,1.4-1.7,2.2-2.5c0.8-0.9,1.6-1.8,2.4-2.7c0.1-0.1,0.3-0.2,0.4-0.2
			c0.2,0,0.3,0.1,0.4,0.2c0.1,0.1,0.2,0.2,0.2,0.4c0,0.1,0,0.3-0.1,0.4c-0.4,0.4-0.7,0.8-1.2,1.2c-0.4,0.4-0.8,0.9-1.2,1.3
			s-0.8,0.9-1.2,1.3c-0.4,0.4-0.8,0.8-1.2,1.2c-0.3,0.3-0.6,0.5-0.8,0.7c-0.3,0.2-0.6,0.3-0.9,0.4c-0.3,0-0.5,0-0.7,0
			c-0.2-0.1-0.4-0.2-0.6-0.3c-0.2-0.1-0.3-0.3-0.4-0.5c-0.1-0.2-0.1-0.4-0.1-0.6c0.1-0.6,0.3-1.1,0.5-1.7c0.2-0.6,0.5-1.2,0.8-1.8
			c-0.6,0.6-1.1,1.1-1.7,1.7c-0.6,0.6-1.2,1.2-1.8,1.9c-0.1,0.1-0.3,0.3-0.5,0.6c-0.2,0.2-0.4,0.4-0.6,0.6c-0.5,0.4-1,0.5-1.4,0.5
			c-0.4,0-0.7-0.2-1-0.4c-0.3-0.3-0.5-0.6-0.6-1c-0.1-0.4-0.1-0.8,0-1.1c0.1-0.4,0.3-0.9,0.6-1.6c0.3-0.6,0.7-1.3,1.2-2
			c0.5-0.7,1-1.4,1.6-2.1c0.6-0.7,1.2-1.3,1.8-1.8c0.3-0.3,0.7-0.5,1.1-0.6c0.4-0.2,0.8-0.3,1.3-0.3c0.4-0.1,0.9,0,1.3,0
			c0.4,0.1,0.8,0.2,1.2,0.4c0.1,0,0.2,0.1,0.2,0.2c0,0.1,0.1,0.1,0.1,0.2c0.1-0.3,0.3-0.6,0.4-0.8C115.7,15.1,115.8,14.8,115.9,14.6
			z M113.9,17.5c0.1-0.1,0.3-0.3,0.4-0.3c-0.1-0.2-0.3-0.3-0.5-0.4c-0.2-0.1-0.4-0.1-0.6-0.1c-0.2,0-0.4,0-0.6,0.1
			c-0.2,0.1-0.3,0.1-0.4,0.1c-0.7,0.2-1.3,0.7-1.9,1.3c-0.6,0.6-1.1,1.3-1.5,2c-0.4,0.7-0.8,1.4-1.2,2.1c-0.3,0.7-0.6,1.2-0.7,1.6
			c-0.2,0.4-0.3,0.8-0.4,1.2c-0.1,0.3-0.1,0.6-0.1,0.7c0,0.1,0.1,0.1,0.4,0c0.2-0.1,0.5-0.5,1-1l0.2-0.2c1-1.2,2-2.4,3-3.5
			C111.9,19.9,112.9,18.7,113.9,17.5z"/>
		<path id="XMLID_36_" class="st0" d="M122.8,22.6c-0.1,0.2-0.3,0.6-0.7,1.2c-0.4,0.5-0.8,1-1.2,1.4c0.5,0,0.8,0.1,1.1,0.3
			c0.9-1.3,1.8-2.5,2.8-3.5c0.9-1.1,1.7-1.9,2.3-2.7c0.1-0.1,0.3-0.2,0.5-0.2c0.2,0,0.3,0.1,0.4,0.2c0.1,0.1,0.2,0.2,0.2,0.4
			c0,0.1,0,0.3-0.1,0.4c-0.9,1-1.8,2-2.8,3c-0.9,1-1.8,2.1-2.6,3.1c0.3,0.5,0.4,1.1,0.3,1.7c-0.1,0.7-0.2,1.4-0.5,2.1
			c-0.3,0.7-0.6,1.5-1.1,2.2c-0.4,0.7-0.9,1.4-1.4,2c-0.5,0.6-1,1.1-1.5,1.6c-0.5,0.4-1,0.7-1.5,0.8c-0.3,0.1-0.6,0.1-0.9,0.1
			c-0.3,0-0.5-0.1-0.7-0.2c-0.2-0.1-0.3-0.3-0.4-0.5c0-0.2,0-0.5,0.3-0.9c0.8-1.3,1.7-2.7,2.8-4.2c1.1-1.5,2.2-3,3.3-4.5
			c-0.1,0-0.1,0-0.2,0c-0.1,0-0.4,0.1-0.7,0.1c-0.4,0-0.7,0-1.2,0c-0.4,0-0.8,0-1.2-0.1c-0.4-0.1-0.7-0.2-0.9-0.4
			c-0.1-0.1-0.2-0.2-0.1-0.4c0-0.2,0.1-0.3,0.2-0.4c0.1-0.1,0.3-0.3,0.4-0.4c0.1-0.1,0.3-0.2,0.4-0.3c0.2-0.2,0.5-0.4,0.9-0.7
			c0.4-0.3,0.7-0.6,1-1c0.3-0.4,0.6-0.8,0.8-1.2c0.2-0.4,0.3-0.9,0.3-1.3c0-0.2,0-0.5-0.1-0.8c0-0.3-0.1-0.5-0.1-0.8
			c-0.4,0.4-0.8,0.8-1.1,1.1c-0.4,0.4-0.7,0.7-1.1,1.1c-0.1,0.1-0.3,0.2-0.4,0.2c-0.1,0-0.2,0-0.3-0.1c-0.1-0.1-0.2-0.2-0.2-0.3
			c0-0.1,0-0.3,0-0.5c0.6-0.7,1.1-1.3,1.5-1.9c0.4-0.6,0.9-1.1,1.3-1.7v-0.4c0-0.3,0.1-0.7,0.2-0.9c0.1-0.3,0.3-0.6,0.5-0.9
			c0.1-0.2,0.3-0.3,0.6-0.3c0.3,0.1,0.6,0.2,0.9,0.4c0.3,0.2,0.5,0.4,0.7,0.7c0.2,0.3,0.3,0.5,0.2,0.6c-0.1,0.1-0.2,0.2-0.3,0.2
			c-0.1,0-0.2,0.1-0.3,0.2l-0.3,0.3v0.1c0,0.4,0,0.8,0,1.4c0.1,0.5,0.1,1.1,0.1,1.6c0,0.6,0.1,1.1,0,1.6
			C123,21.7,122.9,22.2,122.8,22.6z M119,32.4c0.3-0.4,0.6-0.9,0.9-1.4c0.3-0.5,0.6-1,0.8-1.5c0.3-0.5,0.5-0.9,0.7-1.4
			c0.2-0.4,0.3-0.8,0.4-1.1c-0.5,0.6-1,1.2-1.4,1.9c-0.5,0.6-0.9,1.2-1.3,1.8c-0.1,0.2-0.3,0.4-0.6,0.8c-0.3,0.4-0.6,0.7-0.9,1.2
			c-0.3,0.4-0.6,0.9-0.9,1.3c-0.3,0.4-0.6,0.8-0.7,1.1c-0.2,0.3-0.3,0.5-0.3,0.7c0,0.1,0.1,0.1,0.4-0.1c0.6-0.4,1.2-0.9,1.6-1.4
			C118.1,33.8,118.6,33.1,119,32.4z"/>
		<path id="XMLID_39_" class="st0" d="M129.3,14.7c0-0.2,0-0.4,0.3-0.4c0.2,0,0.5,0,0.8,0.1c0.3,0.1,0.6,0.2,0.8,0.4
			c0.3,0.2,0.4,0.4,0.5,0.6c0,0.3-0.2,0.6-0.5,1.1c-0.3,0.4-0.6,0.9-1,1.5c-0.4,0.5-0.8,1.1-1.2,1.7c-0.4,0.6-0.9,1.1-1.3,1.7
			c-0.4,0.5-0.8,1-1.1,1.5c-0.3,0.4-0.5,0.8-0.6,1c-0.2,0.4-0.3,0.8-0.4,1.1c-0.1,0.3-0.1,0.6-0.1,0.7c0,0.1,0.2,0.1,0.4,0
			c0.2-0.1,0.5-0.5,1-1l0.2-0.2c0.4-0.6,1-1.2,1.6-2c0.6-0.7,1.3-1.4,2-2.2c0.7-0.7,1.3-1.5,2-2.2c0.6-0.7,1.2-1.4,1.7-2.1
			c0.2-0.3,0.4-0.6,0.5-0.8c0.1-0.2,0.3-0.4,0.4-0.5c0.1,0,0.3,0,0.5,0.1c0.2,0.1,0.4,0.2,0.5,0.4c0.2,0.2,0.3,0.4,0.4,0.6
			c0.1,0.2,0.1,0.4,0.1,0.7c-0.5,0.5-1,1.1-1.4,1.8c-0.4,0.7-0.9,1.5-1.5,2.3c-0.5,0.7-1,1.5-1.5,2.3c-0.5,0.8-1,1.6-1.6,2.4
			c1-0.6,1.9-1.4,2.9-2.4c1-0.9,2-2.1,3.1-3.6c0.1-0.1,0.3-0.2,0.4-0.2c0.2,0,0.3,0,0.4,0.1c0.1,0.1,0.2,0.2,0.2,0.4
			c0,0.1,0,0.3-0.1,0.4c-0.6,0.6-1.2,1.3-1.8,1.8c-0.5,0.6-1.1,1.2-1.7,1.7c-0.8,0.7-1.6,1.4-2.4,1.9c-0.8,0.5-1.6,1-2.3,1.4
			l-1.2,1.8c-0.7,1-1.3,1.8-1.9,2.5c-0.6,0.7-1.2,1.3-1.9,1.8c-0.4,0.3-0.8,0.5-1.3,0.7c-0.5,0.2-0.9,0.2-1.3,0.1
			c-0.4-0.1-0.7-0.3-1-0.6c-0.2-0.3-0.3-0.8-0.2-1.4c0.1-0.3,0.3-0.7,0.6-1c0.3-0.4,0.7-0.7,1.2-1c0.4-0.3,0.9-0.6,1.4-0.8
			c0.5-0.3,0.9-0.5,1.2-0.6l2.4-1.2c0.7-1.1,1.5-2.2,2.2-3.3c0.7-1.1,1.4-2.3,2-3.3c-0.6,0.8-1.2,1.5-1.9,2.3
			c-0.6,0.8-1.2,1.4-1.8,2.1c-0.1,0.1-0.3,0.3-0.5,0.6c-0.2,0.2-0.4,0.4-0.7,0.6c-0.5,0.4-0.9,0.5-1.3,0.5c-0.4,0-0.7-0.2-1-0.4
			c-0.3-0.3-0.5-0.6-0.6-1c-0.1-0.4-0.1-0.8,0-1.1c0.1-0.4,0.4-1,0.9-1.7c0.5-0.7,1.1-1.5,1.7-2.3c0.6-0.9,1.2-1.7,1.7-2.6
			C128.8,16.3,129.1,15.5,129.3,14.7z M123.6,31.6c0.5-0.4,0.9-0.8,1.4-1.3c0.5-0.5,1-1.1,1.5-1.7c-0.6,0.4-1.3,0.8-2,1.2
			c-0.7,0.4-1.3,0.9-2,1.5c-0.6,0.5-0.9,0.8-1,1c-0.1,0.2-0.1,0.3,0.1,0.4c0.2,0,0.5-0.1,0.9-0.2C122.8,32.1,123.2,31.9,123.6,31.6z
			"/>
	</g>
	<g id="XMLID_20_">
		<g id="XMLID_21_">
			<defs>
				
					<rect id="XMLID_27_" x="2" y="9.5" transform="matrix(-0.954 0.2999 -0.2999 -0.954 22.5016 30.0168)" width="13.9" height="14.5"/>
			</defs>
			<clipPath id="XMLID_77_">
				<use xlink:href="#XMLID_27_"  style="overflow:visible;"/>
			</clipPath>
			<path id="XMLID_22_" class="st1" d="M13.3,8.1c-0.1-0.2-0.4-0.2-0.6-0.1c-0.2,0.1-0.2,0.4-0.1,0.6c1.2,1.6,0.4,3.4-0.3,4.5
				l-0.6-0.4c-0.2-0.1-0.5-0.2-0.8-0.1l-2.2,0.7c-0.2,0.1-0.5,0.3-0.7,0.5l-5,6.6c-0.2,0.3-0.2,0.8,0.1,1l4.2,3.3
				c0.3,0.2,0.7,0.1,0.9-0.2l5-6.6c0.1-0.2,0.3-0.5,0.3-0.8l0-2.4c0-0.2-0.1-0.6-0.3-0.7l-0.3-0.3C13.9,12.2,14.7,10,13.3,8.1
				L13.3,8.1z M12.3,15.5c-0.4,0.5-1.1,0.6-1.6,0.2c-0.5-0.4-0.6-1.1-0.2-1.6c0.3-0.4,0.8-0.5,1.3-0.4c-0.1,0.2-0.3,0.3-0.3,0.3
				c-0.2,0.2-0.2,0.4,0,0.6c0.1,0.1,0.3,0.2,0.4,0.1c0.1,0,0.1-0.1,0.2-0.1c0.1-0.1,0.2-0.2,0.4-0.4C12.6,14.6,12.6,15.1,12.3,15.5
				L12.3,15.5z M12.3,15.5"/>
		</g>
	</g>
</g>
</svg>
